<?xml version="1.0" encoding="UTF-8"?>
<svg version="1.1" xmlns="http://www.w3.org/2000/svg" width="752" height="1024">
<path d="M0 0 C0.89795288 -0.00067474 1.79590576 -0.00134949 2.72106934 -0.00204468 C91.47688216 0.10302316 179.83180624 31.95803185 245.48828125 92.296875 C247.39412347 94.03896113 249.34003302 95.70954813 251.3125 97.375 C260.09711129 105.03016127 268.5183401 113.49051221 276.04296875 122.38671875 C277.91801731 124.59510927 279.86323867 126.73185122 281.8125 128.875 C342.98093591 196.86288991 373.57683408 277.30282765 369.3515625 369.1015625 C364.60592567 451.35926763 333.58541518 529.56699495 280.22851562 632.45751953 C277.92484412 636.46930313 275.69180747 640.51926803 273.4519043 644.56689453 C268.33889245 653.79111599 263.10651241 662.92687991 257.625 671.9375 C257.1287915 672.75347656 256.63258301 673.56945312 256.12133789 674.41015625 C245.65328319 691.46070737 234.74387199 708.23942098 223.72802734 724.93945312 C221.8583822 727.77520475 219.99354849 730.61408192 218.12890625 733.453125 C212.15650867 742.52706746 206.11129498 751.51853406 199.73925781 760.31689453 C196.86703115 764.30152861 194.11976018 768.36464486 191.375 772.4375 C185.74959539 780.72316951 179.86657781 788.79408292 173.89453125 796.83203125 C171.09191657 800.60630525 168.34301301 804.41452541 165.625 808.25 C156.21117178 821.49952228 146.47142086 834.50103674 136.59179688 847.40576172 C132.16155371 853.20253158 127.80736464 859.04898926 123.5 864.9375 C118.36753307 871.94934913 113.10063609 878.84041113 107.74267578 885.68115234 C103.89476864 890.59906574 100.11059334 895.55879482 96.375 900.5625 C95.38935617 901.8802332 94.40367983 903.1979421 93.41796875 904.515625 C92.06017451 906.3309824 90.70238988 908.1463407 89.34619141 909.96289062 C82.99145127 918.44930003 76.1986784 926.46041153 69.21240234 934.42871094 C66.77957329 937.21999127 64.38696084 940.04448266 62 942.875 C61.55406494 943.40351562 61.10812988 943.93203125 60.64868164 944.4765625 C59.7547893 945.5365678 58.86115198 946.5967882 57.96777344 947.65722656 C55.69078561 950.35814812 53.40754206 953.05377244 51.125 955.75 C50.20830416 956.83330865 49.29163747 957.91664196 48.375 959 C42.875 965.5 37.375 972 31.875 978.5 C31.42092773 979.03665283 30.96685547 979.57330566 30.49902344 980.1262207 C29.58569959 981.20555917 28.67228865 982.28482394 27.75878906 983.36401367 C25.41524417 986.13285927 23.07339607 988.9031126 20.734375 991.67578125 C15.75053372 997.58052218 10.74682109 1003.46391542 5.625 1009.25 C2.84630494 1006.55550782 0.21181077 1003.8093511 -2.3125 1000.875 C-7.53859406 994.84576162 -13.04213293 989.07033826 -18.49902344 983.25097656 C-27.51399486 973.6353199 -36.50036467 963.99551076 -45.375 954.25 C-46.12007813 953.43402344 -46.86515625 952.61804688 -47.6328125 951.77734375 C-53.51600626 945.29317858 -59.21526791 938.65925368 -64.88720703 931.99072266 C-66.26836945 930.3747581 -67.6610068 928.76972673 -69.05859375 927.16796875 C-75.25647869 920.02108673 -80.96876923 912.56772082 -86.60986328 904.97509766 C-90.85701897 899.2595505 -95.17306422 893.60693018 -99.5625 888 C-104.3471916 881.88139035 -109.05832568 875.71595284 -113.70263672 869.49023438 C-117.82748048 863.96518947 -122.00250593 858.47958564 -126.1875 853 C-132.07530873 845.28790825 -137.91684303 837.54301777 -143.72753906 829.77270508 C-148.26153405 823.7164813 -152.8420975 817.69721248 -157.4375 811.6875 C-164.27930834 802.7318817 -170.99323407 793.6888017 -177.65283203 784.59716797 C-179.39790613 782.21878089 -181.14907617 779.84500866 -182.90234375 777.47265625 C-195.64065176 760.23568274 -208.14493568 742.85162753 -220.375 725.25 C-220.83551758 724.58887207 -221.29603516 723.92774414 -221.77050781 723.24658203 C-235.45501745 703.58345305 -248.79622008 683.63955293 -261.375 663.25 C-262.00728516 662.22890137 -262.63957031 661.20780273 -263.29101562 660.15576172 C-273.81869659 643.11911087 -283.85826926 625.87721831 -293.375 608.25 C-293.92607422 607.23437988 -294.47714844 606.21875977 -295.04492188 605.17236328 C-334.89312509 531.39578296 -358.50148705 452.83871188 -358.61523438 368.69897461 C-358.61958408 365.96446131 -358.63336713 363.23026974 -358.65625 360.49584961 C-358.85919926 335.68545721 -357.70977499 311.00912002 -352.6875 286.625 C-352.30621948 284.72609009 -352.30621948 284.72609009 -351.91723633 282.78881836 C-340.4413886 226.90059278 -315.32388662 173.79461508 -278.375 130.25 C-277.57964844 129.2703125 -276.78429687 128.290625 -275.96484375 127.28125 C-269.3593343 119.23598414 -262.14931136 111.81002007 -254.8125 104.4375 C-254.32980652 103.94963013 -253.84711304 103.46176025 -253.34979248 102.95910645 C-246.70500274 96.2581985 -239.75434287 90.13286959 -232.375 84.25 C-231.33565392 83.37497156 -230.30053192 82.49484612 -229.2734375 81.60546875 C-174.99515912 34.97320172 -103.0364674 8.05397522 -32.375 1.25 C-30.94510742 1.10860596 -30.94510742 1.10860596 -29.48632812 0.96435547 C-19.66445581 0.0950669 -9.85326022 0.00670769 0 0 Z " fill="#007F00" transform="translate(370.375,4.75)"/>
<path d="M0 0 C0.96848877 0.00087616 1.93697754 0.00175232 2.93481445 0.00265503 C19.20061976 0.0510293 34.84635824 1.03001046 50.8125 4.375 C51.94961426 4.61105957 53.08672852 4.84711914 54.25830078 5.09033203 C94.06517579 13.63809102 132.19992398 30.50646164 163.8125 56.375 C164.58787109 57.00607666 164.58787109 57.00607666 165.37890625 57.64990234 C177.99208808 67.95815691 190.30897873 78.89645764 200.8125 91.375 C201.2780127 91.91753418 201.74352539 92.46006836 202.22314453 93.01904297 C216.19522432 109.35322875 227.98310339 127.26878262 237.8125 146.375 C238.2245166 147.17309082 238.6365332 147.97118164 239.06103516 148.79345703 C256.71433727 183.40152491 268.34743598 223.33914999 268.8125 262.375 C268.83683105 263.49003906 268.86116211 264.60507812 268.88623047 265.75390625 C269.69745123 305.05528496 265.0622131 345.17371609 248.8125 381.375 C248.33554687 382.52097656 247.85859375 383.66695313 247.3671875 384.84765625 C235.07566387 414.27015672 218.27311718 441.30477432 196.43359375 464.56640625 C193.98573922 467.18936811 191.61497967 469.86501001 189.25 472.5625 C184.7463253 477.557773 179.93117069 482.01721279 174.8125 486.375 C174.26271484 486.84776367 173.71292969 487.32052734 173.14648438 487.80761719 C157.43086049 501.24748133 140.18705859 512.87765534 121.8125 522.375 C121.05098633 522.77138672 120.28947266 523.16777344 119.50488281 523.57617188 C84.02664331 541.8204972 44.73851018 551.62417374 4.875 551.5625 C3.78676437 551.56159363 3.78676437 551.56159363 2.67654419 551.56066895 C-9.37501608 551.53353809 -21.24216782 551.04580283 -33.1875 549.375 C-34.12819336 549.24609375 -35.06888672 549.1171875 -36.03808594 548.984375 C-101.9147136 539.67501839 -165.84805613 503.90958906 -206.1875 450.375 C-206.59597168 449.84293945 -207.00444336 449.31087891 -207.42529297 448.76269531 C-236.26676783 411.12483718 -255.66250631 367.26685886 -263.1875 320.375 C-263.33703125 319.45332031 -263.4865625 318.53164063 -263.640625 317.58203125 C-267.71593716 291.26816223 -268.20678757 263.31187556 -263.64501953 237.02880859 C-263.16400762 234.23873417 -262.73403488 231.44358524 -262.30859375 228.64453125 C-253.69861689 173.71278687 -227.65119966 119.05790114 -187.1875 80.375 C-184.76398283 77.97109057 -182.36011219 75.55594945 -180.00390625 73.0859375 C-173.75607799 66.61071861 -167.05077378 61.09594893 -159.88964844 55.67138672 C-158.33319912 54.48596706 -156.7945087 53.27732286 -155.2578125 52.06640625 C-127.76683291 30.70568665 -94.15935302 14.77963542 -60.1875 7.375 C-59.23359375 7.16149902 -58.2796875 6.94799805 -57.296875 6.72802734 C-54.17985316 6.03431198 -51.05989826 5.35658534 -47.9375 4.6875 C-46.99165039 4.48463379 -46.04580078 4.28176758 -45.07128906 4.07275391 C-29.96857255 0.96123038 -15.37303129 -0.03404752 0 0 Z " fill="#009400" transform="translate(375.1875,105.625)"/>
<path d="M0 0 C0.69743317 0.00215515 1.39486633 0.0043103 2.11343384 0.00653076 C21.46946483 0.10204794 38.97468192 3.35901788 57.375 9.3125 C58.44959473 9.65837158 58.44959473 9.65837158 59.54589844 10.01123047 C80.762663 17.00392669 99.51696446 28.78385113 116.375 43.3125 C117.82519531 44.55966797 117.82519531 44.55966797 119.3046875 45.83203125 C131.08458045 56.18022004 140.92735908 68.10868619 149.375 81.3125 C149.96595459 82.22128906 149.96595459 82.22128906 150.56884766 83.1484375 C177.5453342 125.06196395 183.89843197 174.7494316 174.140625 223.10205078 C170.43482631 239.6463654 163.407246 255.4517963 155.375 270.3125 C154.83488281 271.33214844 154.29476563 272.35179687 153.73828125 273.40234375 C145.95833794 287.43638193 135.6611642 299.96491941 124.375 311.3125 C123.87419922 311.8173291 123.37339844 312.3221582 122.85742188 312.84228516 C90.98545259 344.54125844 46.93562606 361.57881182 2.3125 361.5 C1.57623383 361.49873108 0.83996765 361.49746216 0.08139038 361.49615479 C-40.67306959 361.36207037 -80.79902653 347.58163038 -111.625 320.3125 C-112.59953125 319.45914062 -113.5740625 318.60578125 -114.578125 317.7265625 C-146.66323989 289.231102 -165.38031144 252.15970463 -173.625 210.3125 C-173.80667725 209.42643066 -173.98835449 208.54036133 -174.17553711 207.62744141 C-175.73431145 199.35153906 -175.98288876 191.21638494 -175.9375 182.8125 C-175.93567719 182.11007172 -175.93385437 181.40764343 -175.93197632 180.68392944 C-175.88107896 168.9932881 -175.01867428 157.76759858 -172.625 146.3125 C-172.4693457 145.49910156 -172.31369141 144.68570313 -172.15332031 143.84765625 C-163.28504274 97.89546349 -135.75667929 56.48234018 -97.0625 30.25 C-67.71985513 10.95043067 -35.30998864 -0.19789213 0 0 Z " fill="#FEFEFE" transform="translate(371.625,197.6875)"/>
</svg>
